<?xml version="1.0" encoding="utf-8"?><svg viewBox="0 0 48 40" xmlns="http://www.w3.org/2000/svg" xmlns:xlink="http://www.w3.org/1999/xlink"><style>:root>svg{display:none}:root>svg:target{display:block}</style><svg fill="none" viewBox="0 0 27 25" id="card-buy-icon" xmlns="http://www.w3.org/2000/svg"><path d="M21.876 22.266a.146.146 0 00.084-.053 3.08 3.08 0 01.023-.027c.037-.042.04-.13.04-.175-.014-.107-.104-.18-.182-.18h-.01c-.078.006-.166.11-.16.232.01.116.096.203.168.203h.037zM8.22 22.26c.099 0 .18-.095.18-.21 0-.116-.081-.21-.18-.21-.1 0-.18.094-.18.21 0 .116.08.21.18.21zM22 24.266h-.16c-1.138 0-2.083-.911-2.163-2.068-.08-1.205.817-2.28 2.018-2.362.05-.003.098-.005.146-.005 1.139 0 2.1.901 2.178 2.057.032.603-.145 1.173-.53 1.613a2.16 2.16 0 01-1.49.765zM8.22 24.26c-1.205 0-2.18-.99-2.18-2.21s.975-2.21 2.18-2.21c1.204 0 2.18.99 2.18 2.21s-.976 2.21-2.18 2.21zm12.978-6.866H9.133a.965.965 0 01-.93-.716L4.278 2.247H1.522A.972.972 0 01.56 1.27c0-.537.432-.977.96-.977H5c.432 0 .817.293.93.717l3.925 14.43h10.704l3.556-8.306H12.258a.973.973 0 01-.962-.978c0-.537.433-.977.962-.977h13.33c.321 0 .626.163.802.44a1 1 0 01.08.928l-4.39 10.26a.963.963 0 01-.882.587z" fill="#fff"/></svg><svg fill="none" viewBox="0 0 32 29" id="cart-svg" xmlns="http://www.w3.org/2000/svg"><path d="M26.2 29a2.477 2.477 0 11.201 0h-.2zM6.754 26.32a2.68 2.68 0 115.364 0 2.68 2.68 0 01-5.366 0h.002zm3.8-5.634a1.184 1.184 0 01-1.145-.867L4.575 2.364H1.182a1.182 1.182 0 010-2.364h4.281a1.183 1.183 0 011.144.868l4.833 17.455h13.178L29 8.275h-14.6a1.183 1.183 0 110-2.365h16.413a1.178 1.178 0 01.986.533 1.191 1.191 0 01.1 1.122l-5.405 12.412a1.185 1.185 0 01-1.084.709H10.553z"/></svg><svg fill="none" viewBox="0 0 18 18" id="cross-close" xmlns="http://www.w3.org/2000/svg"><path d="M11.245 9l6.285-6.285a1.59 1.59 0 00-2.245-2.25L9 6.752 2.715.466a1.59 1.59 0 00-2.25 2.25L6.752 9 .466 15.285a1.59 1.59 0 002.25 2.25L9 11.248l6.285 6.285a1.591 1.591 0 002.25-2.25L11.244 9z" fill="#575757"/></svg><svg fill="none" viewBox="0 0 46 32" id="delivery-svg" xmlns="http://www.w3.org/2000/svg"><path d="M30.287 27.243H14.81a5.562 5.562 0 01-10.987 0H1.886A1.869 1.869 0 01.03 25.367V1.877A1.869 1.869 0 011.886 0h25.551a1.868 1.868 0 011.856 1.877v1.905h7.121a.9.9 0 01.238.031c2.3.2 3.457 1.4 4.677 3.462l3.56 6.094c.084.145.129.31.13.477v12.458a.934.934 0 01-.93.938h-2.814a5.562 5.562 0 01-10.987 0zm1.778-.939a3.714 3.714 0 103.716-3.755 3.74 3.74 0 00-3.716 3.755zm-26.464 0a3.715 3.715 0 103.716-3.755A3.74 3.74 0 005.6 26.304h.001zm35.672-.938h1.886v-5.618h-2.736a.932.932 0 01-.929-.938v-1.847c0-.72.276-1.414.77-1.938h-6.379a.927.927 0 01-.229-.03 2.825 2.825 0 01-2.574-2.823v-4.7a.936.936 0 01.93-.939h6.482a3.354 3.354 0 00-2.578-.88h-6.623v19.709h.994a5.561 5.561 0 0110.987 0v.004zm-26.464 0h12.627V1.876H1.886v23.49h1.937a5.562 5.562 0 0110.987 0zm26.542-8.4v.909h1.808v-1.847h-.879a.934.934 0 00-.928.935v.003zm-8.413-4.792a.954.954 0 00.947.958c.064 0 .128.006.19.02H42.6l-2.766-4.736h-6.9l.004 3.758zm.093 14.132a2.766 2.766 0 012.75-2.777.938.938 0 010 1.876.9.9 0 10.891.9.928.928 0 011.857 0 2.75 2.75 0 11-5.5 0h.002zm-26.464 0a2.766 2.766 0 012.75-2.777.938.938 0 010 1.876.9.9 0 10.891.9.928.928 0 011.857 0 2.75 2.75 0 11-5.5 0h.002zM4.71 5.66a.938.938 0 110-1.876h19.9a.938.938 0 110 1.876H4.71z" fill="#F16D7F"/></svg><svg fill="none" viewBox="0 0 40 40" id="discount-svg" xmlns="http://www.w3.org/2000/svg"><path d="M19.994 37.024l-3.471 2.9-2.288-3.92-4.24 1.512-.822-4.48-4.493-.045.732-4.5-4.208-1.6 2.21-3.966L0 19.96l3.412-2.967-2.21-3.965 4.209-1.6-.733-4.495 4.494-.044.822-4.48 4.24 1.51L16.522 0l3.471 2.9L23.464 0l2.289 3.92 4.24-1.511.821 4.48 4.494.046-.732 4.495 4.208 1.6-2.21 3.966 3.412 2.965-3.412 2.967 2.209 3.966-4.209 1.6.733 4.494-4.495.045-.821 4.48-4.238-1.51-2.289 3.92-3.47-2.9zM21.2 35.54l1.761 1.471 1.161-1.99.792-1.356 1.468.523 2.151.768.417-2.273.285-1.555 1.561-.016 2.282-.021-.372-2.282-.254-1.56 1.459-.554 2.134-.813-1.12-2.01-.766-1.375 1.183-1.027 1.734-1.51-1.733-1.5-1.183-1.03.766-1.375 1.121-2.011-2.134-.811-1.459-.553.255-1.56.372-2.281-2.282-.023-1.56-.016-.285-1.554-.416-2.273-2.152.767-1.468.523-.793-1.357-1.162-1.99-1.762 1.47-1.205 1.006-1.205-1.005-1.761-1.471-1.161 1.989-.792 1.357-1.469-.523-2.15-.768-.418 2.274-.285 1.554-1.56.016-2.281.022.372 2.282.254 1.558-1.459.555-2.135.81 1.121 2.012.766 1.375-1.183 1.029-1.734 1.508 1.733 1.507 1.183 1.029-.766 1.375-1.121 2.01 2.133.81 1.46.555-.255 1.559-.371 2.284 2.281.023 1.56.016.285 1.555.417 2.272 2.152-.767 1.469-.523.792 1.357 1.162 1.99 1.761-1.471 1.205-1.005 1.204.998zm.118-12.521c0-2.927 1.565-4.555 3.459-4.555 2.006 0 3.3 1.563 3.3 4.33 0 3.059-1.585 4.577-3.415 4.577-1.779 0-3.324-1.45-3.344-4.352zm1.521-.088c-.023 1.85.682 3.258 1.872 3.258 1.277 0 1.85-1.385 1.85-3.3 0-1.765-.507-3.237-1.85-3.237-1.211-.004-1.872 1.45-1.872 3.278zm-7.645 4.4l8.415-14.719h1.233l-8.415 14.719h-1.233zM11.979 16.99c0-2.9 1.563-4.532 3.458-4.532 2 0 3.326 1.564 3.326 4.332 0 3.058-1.586 4.575-3.436 4.575-1.783 0-3.327-1.45-3.348-4.374v-.001zm1.542-.066c-.044 1.85.641 3.257 1.85 3.259 1.277 0 1.85-1.384 1.85-3.3 0-1.766-.507-3.238-1.85-3.238-1.209-.003-1.85 1.447-1.85 3.28v-.001z" fill="#F16D7F"/></svg><svg fill="none" viewBox="0 0 32 23" id="menu-svg" xmlns="http://www.w3.org/2000/svg"><path d="M0 23v-2.69h32V23H0zm0-10.24v-2.69h32v2.69H0zM0 2.69V0h32v2.69H0z"/></svg><svg fill="none" viewBox="0 0 48 35" id="quality-crown__svg" xmlns="http://www.w3.org/2000/svg"><path d="M42.394 8.536a4.6 4.6 0 00-4.646 4.533 4.456 4.456 0 001.56 3.365l-5.86 2.055-8.34-9.683a4.535 4.535 0 003.1-4.256 4.646 4.646 0 00-9.29 0 4.543 4.543 0 003.046 4.242l-8.352 9.7-5.858-2.055a4.457 4.457 0 001.558-3.365 4.647 4.647 0 10-5.745 4.393v12.29c.007.083.024.163.05.242-.033.126-.05.257-.05.388 0 4.412 17.919 4.542 19.962 4.542 2.043 0 19.962-.13 19.962-4.542 0-.131-.018-.262-.05-.388a.899.899 0 00.05-.241V17.465a4.516 4.516 0 00-1.093-8.926l-.004-.003zm-21.22-3.984a2.385 2.385 0 112.387 2.328 2.362 2.362 0 01-2.386-2.328zm-7.59 16.276a1.155 1.155 0 001.247-.33l8.7-10.1 8.7 10.1a1.156 1.156 0 001.245.33l7.758-2.724v9.937c-4.885-2.122-16.11-2.2-17.7-2.2-1.591 0-12.82.079-17.7 2.2v-9.937l7.75 2.724zm9.944 11.889c-8.7 0-14.25-1.011-16.557-1.862a4.63 4.63 0 01-1-.474c.722-.521 3.06-1.232 6.966-1.732a93.169 93.169 0 0121.175 0c3.9.5 6.245 1.21 6.965 1.732-.31.198-.645.358-.995.474-2.302.849-7.846 1.862-16.554 1.862zM2.28 13.069a2.385 2.385 0 112.386 2.33 2.361 2.361 0 01-2.386-2.33zm40.113 2.33a2.329 2.329 0 112.386-2.33 2.362 2.362 0 01-2.386 2.329z" fill="#F16D7F"/></svg><svg fill="none" viewBox="0 0 29 29" id="registration-svg" xmlns="http://www.w3.org/2000/svg"><path d="M14.5 19.937c4.5 0 8.156-4.473 8.156-9.969C22.656 4.472 19 0 14.5 0a7.45 7.45 0 00-5.834 3 11.159 11.159 0 00-2.322 6.974c0 5.491 3.656 9.963 8.156 9.963zm0-18.124c3.5 0 6.344 3.659 6.344 8.156 0 4.497-2.846 8.156-6.344 8.156s-6.344-3.66-6.345-8.156C8.154 5.473 11 1.813 14.5 1.813zm6.344 16.312a.907.907 0 000 1.813 6.351 6.351 0 016.344 6.344.908.908 0 01-.906.906H2.72a.908.908 0 01-.906-.906 6.352 6.352 0 016.344-6.344.906.906 0 000-1.812A8.165 8.165 0 000 26.281 2.722 2.722 0 002.719 29h23.563A2.722 2.722 0 0029 26.281a8.166 8.166 0 00-8.156-8.156z"/></svg><svg fill="none" viewBox="0 0 27 28" id="search-svg" xmlns="http://www.w3.org/2000/svg"><path d="M19.06 17.626A10.395 10.395 0 1011.42 21c2.253.003 4.444-.731 6.24-2.09l7.749 7.807a.925.925 0 00.66.285.9.9 0 00.66-.285.971.971 0 000-1.346l-7.67-7.746zM2.887 10.5a8.535 8.535 0 118.534 8.6 8.575 8.575 0 01-8.534-8.6z"/></svg></svg>